<svg width="1906" height="917" viewBox="0 0 1906 917" fill="none" xmlns="http://www.w3.org/2000/svg">
<path fill-rule="evenodd" clip-rule="evenodd" d="M295.47 142.929C306.013 170.263 314.944 204.312 299.743 229.314C284.276 254.753 249.201 258.815 220.536 266.178C198.814 271.757 175.327 258.429 154.44 266.633C121.728 279.483 99.0055 344.151 69.0544 325.681C36.8474 305.818 80.5449 249.33 68.0888 213.38C60.6098 191.794 23.9426 192.848 15.6561 171.565C7.39186 150.339 20.9669 127.366 25.9386 105.119C32.0759 77.6556 21.8768 34.1214 48.3561 25.2404C79.3617 14.8413 101.964 66.209 134.544 68.693C158.5 70.5194 174.106 33.0442 197.864 36.6391C220.287 40.032 228.778 68.503 244.187 85.2836C261.882 104.552 286.028 118.45 295.47 142.929Z" fill="#FCA311" fill-opacity="0.21"/>
<path fill-rule="evenodd" clip-rule="evenodd" d="M147.756 649.82C173.107 647.53 178.181 588.84 202.362 596.861C225.749 604.619 192.514 652.775 209.855 670.419C225.998 686.844 264.545 654.971 277.933 673.752C289.912 690.554 255.584 709.088 251.948 729.465C249.408 743.695 256.279 757.778 260.471 771.603C268.138 796.89 310.274 833.135 287.134 845.512C256.494 861.901 220.854 792.002 190.544 809.006C162.003 825.018 198.214 879.92 178.692 906.349C166.114 923.376 136.138 916.438 116.211 909.638C96.2392 902.822 86.9698 878.721 68.3705 868.698C48.3537 857.912 14.0134 869.475 3.75459 849.038C-7.64523 826.328 9.42323 797.782 21.5738 775.473C31.8216 756.657 66.3685 753.154 67.6515 731.719C68.9943 709.285 27.6339 701.147 27.3677 678.674C27.1712 662.091 55.2413 661.296 66.6761 649.393C78.8868 636.683 79.2706 606.302 96.8059 606.394C119.22 606.512 125.431 651.836 147.756 649.82Z" fill="#AFACAC" fill-opacity="0.29"/>
<path fill-rule="evenodd" clip-rule="evenodd" d="M1746.76 649.82C1772.11 647.53 1777.18 588.84 1801.36 596.861C1824.75 604.619 1791.51 652.775 1808.86 670.419C1825 686.844 1863.54 654.971 1876.93 673.752C1888.91 690.554 1854.58 709.088 1850.95 729.465C1848.41 743.695 1855.28 757.778 1859.47 771.603C1867.14 796.89 1909.27 833.135 1886.13 845.512C1855.49 861.901 1819.85 792.002 1789.54 809.006C1761 825.018 1797.21 879.92 1777.69 906.349C1765.11 923.376 1735.14 916.438 1715.21 909.638C1695.24 902.822 1685.97 878.721 1667.37 868.698C1647.35 857.912 1613.01 869.475 1602.75 849.038C1591.35 826.328 1608.42 797.782 1620.57 775.473C1630.82 756.657 1665.37 753.154 1666.65 731.719C1667.99 709.285 1626.63 701.147 1626.37 678.674C1626.17 662.091 1654.24 661.296 1665.68 649.393C1677.89 636.683 1678.27 606.302 1695.81 606.394C1718.22 606.512 1724.43 651.836 1746.76 649.82Z" fill="#FCA311" fill-opacity="0.21"/>
</svg>
