<svg width="102" height="101" viewBox="0 0 102 101" fill="none" xmlns="http://www.w3.org/2000/svg">
<path d="M26.0554 55.5555C26.0554 60.9188 28.186 66.0624 31.9784 69.8548C35.7708 73.6472 40.9144 75.7777 46.2776 75.7777C51.6409 75.7777 56.7845 73.6472 60.5769 69.8548C64.3693 66.0624 66.4999 60.9188 66.4999 55.5555C66.4999 50.1923 64.3693 45.0487 60.5769 41.2563C56.7845 37.4639 51.6409 35.3333 46.2776 35.3333C40.9144 35.3333 35.7708 37.4639 31.9784 41.2563C28.186 45.0487 26.0554 50.1923 26.0554 55.5555Z" stroke="#212121" stroke-width="10" stroke-linecap="round" stroke-linejoin="round"/>
<path d="M86.0143 45.4445C86.4592 48.7811 86.7221 53.0885 86.7221 55.5556C86.7221 63.5547 84.3501 71.3742 79.906 78.0253C75.4619 84.6763 69.1454 89.8602 61.7551 92.9213C54.3649 95.9825 46.2328 96.7834 38.3874 95.2229C30.5419 93.6623 23.3354 89.8104 17.6792 84.1541C12.0229 78.4978 8.17096 71.2913 6.6104 63.4459C5.04984 55.6004 5.85078 47.4684 8.91192 40.0782C11.9731 32.6879 17.1569 26.3714 23.808 21.9273C30.459 17.4832 38.2785 15.1111 46.2777 15.1111H76.611" stroke="#212121" stroke-width="10" stroke-linecap="round" stroke-linejoin="round"/>
<path d="M76.611 35.3333C68.9721 35.8793 58.861 35.8793 46.2777 35.3333V55.5555M46.2777 55.5555L28.5833 47.9722M46.2777 55.5555L58.9166 70.7222M46.2777 55.5555L33.6388 70.7222M46.2777 55.5555L63.9721 47.9722M76.611 10.0556C76.611 8.71474 77.1436 7.42884 78.0917 6.48074C79.0398 5.53264 80.3257 5 81.6666 5H91.7777C93.1185 5 94.4044 5.53264 95.3525 6.48074C96.3006 7.42884 96.8332 8.71474 96.8332 10.0556V40.3889C96.8332 41.7297 96.3006 43.0156 95.3525 43.9637C94.4044 44.9118 93.1185 45.4444 91.7777 45.4444H81.6666C80.3257 45.4444 79.0398 44.9118 78.0917 43.9637C77.1436 43.0156 76.611 41.7297 76.611 40.3889V10.0556Z" stroke="#212121" stroke-width="10" stroke-linecap="round" stroke-linejoin="round"/>
</svg>
