<svg width="91" height="91" viewBox="0 0 91 91" fill="none" xmlns="http://www.w3.org/2000/svg">
<path d="M45.6667 0C33.7121 0 22.2472 4.79374 13.794 13.3266C5.34085 21.8595 0.591919 33.4326 0.591919 45.5C0.591919 57.5673 5.34085 69.1405 13.794 77.6734C22.2472 86.2063 33.7121 91 45.6667 91C51.586 91 57.4473 89.8231 62.9161 87.5365C68.3848 85.2499 73.3538 81.8984 77.5394 77.6734C81.7249 73.4483 85.0451 68.4324 87.3103 62.9121C89.5756 57.3918 90.7415 51.4751 90.7415 45.5C90.7415 39.5249 89.5756 33.6082 87.3103 28.0879C85.0451 22.5676 81.7249 17.5517 77.5394 13.3266C73.3538 9.10157 68.3848 5.75007 62.9161 3.46348C57.4473 1.17689 51.586 0 45.6667 0ZM45.6667 15.8766C61.8539 15.8766 75.0132 29.1601 75.0132 45.5C75.0132 61.8399 61.8539 75.1234 45.6667 75.1234C29.4795 75.1234 16.3201 61.8399 16.3201 45.5C16.3201 29.1601 29.4795 15.8766 45.6667 15.8766ZM45.6667 19.3617C41.7506 19.3617 38.041 20.2369 34.7164 21.8017C36.9312 28.1678 40.7215 36.2064 45.6667 36.2064C50.6197 36.2064 54.2838 28.1422 56.5522 21.7713C53.244 20.2256 49.5573 19.3617 45.6667 19.3617ZM64.6081 27.664C59.2923 31.7576 52.8806 37.885 54.4097 42.6358C55.9405 47.3918 64.6729 48.4168 71.3768 48.6256C71.4972 47.6006 71.5607 46.5581 71.5607 45.5C71.5607 38.5991 68.9224 32.3317 64.6081 27.664ZM26.6822 27.711C22.3933 32.3735 19.7727 38.6221 19.7727 45.5C19.7727 46.5746 19.8379 47.6333 19.9622 48.6734C26.6434 48.5136 35.3799 47.3581 36.9072 42.6132C38.4367 37.8614 31.9816 31.8572 26.6822 27.711ZM40.1447 36.1611C39.7971 36.171 39.4604 36.2866 39.179 36.4929C38.8087 36.7646 38.5605 37.1736 38.4889 37.63C38.4173 38.0864 38.5282 38.5529 38.7973 38.9267C39.0663 39.3006 39.4715 39.5513 39.9236 39.6236C40.3758 39.696 40.8379 39.5841 41.2083 39.3126C41.3917 39.1781 41.5471 39.0084 41.6656 38.8133C41.7841 38.6182 41.8633 38.4014 41.8988 38.1754C41.9343 37.9494 41.9253 37.7185 41.8724 37.4959C41.8195 37.2734 41.7237 37.0636 41.5904 36.8784C41.4254 36.6492 41.2075 36.4641 40.9555 36.3391C40.7036 36.2141 40.4253 36.153 40.1447 36.1611ZM51.1886 36.1611C51.1479 36.1599 51.1072 36.1601 51.0665 36.1618C50.8066 36.1729 50.5527 36.2431 50.3235 36.3672C50.0943 36.4912 49.8959 36.6659 49.743 36.8782C49.6097 37.0634 49.5138 37.2732 49.4609 37.4958C49.408 37.7183 49.399 37.9492 49.4345 38.1753C49.4699 38.4014 49.5492 38.6181 49.6677 38.8133C49.7862 39.0084 49.9416 39.1781 50.1251 39.3126C50.4955 39.5841 50.9576 39.6961 51.4097 39.6237C51.8618 39.5514 52.267 39.3007 52.5361 38.9269C52.8051 38.553 52.9161 38.0866 52.8445 37.6302C52.7729 37.1738 52.5247 36.7648 52.1544 36.4931C51.873 36.2868 51.5363 36.171 51.1886 36.1611ZM45.6667 39.3043C44.0388 39.3043 42.4776 39.957 41.3266 41.1189C40.1755 42.2809 39.5288 43.8568 39.5288 45.5C39.5288 47.1432 40.1755 48.7191 41.3266 49.8811C42.4776 51.043 44.0388 51.6957 45.6667 51.6957C47.2945 51.6957 48.8557 51.043 50.0068 49.8811C51.1579 48.7191 51.8045 47.1432 51.8045 45.5C51.8045 43.8568 51.1579 42.2809 50.0068 41.1189C48.8557 39.957 47.2945 39.3043 45.6667 39.3043ZM36.7866 46.6689C36.6137 46.6714 36.4423 46.7001 36.2779 46.7541C36.0623 46.8247 35.8625 46.9376 35.6901 47.0862C35.5177 47.2348 35.376 47.4163 35.273 47.6202C35.1701 47.8241 35.1079 48.0464 35.0901 48.2746C35.0723 48.5027 35.0992 48.7322 35.1693 48.9499C35.3107 49.3894 35.6194 49.7541 36.0273 49.9639C36.4352 50.1737 36.9089 50.2114 37.3443 50.0686C37.56 49.9979 37.7597 49.885 37.9321 49.7365C38.1045 49.5879 38.2462 49.4064 38.3492 49.2026C38.4521 48.9987 38.5143 48.7763 38.5321 48.5482C38.5499 48.3201 38.523 48.0906 38.453 47.873C38.3391 47.5189 38.1158 47.211 37.8159 46.9943C37.5161 46.7776 37.1553 46.6636 36.7866 46.6689ZM54.597 46.6704C54.2201 46.6539 53.8481 46.7625 53.538 46.9796C53.228 47.1968 52.997 47.5105 52.8804 47.8728C52.8104 48.0904 52.7835 48.3199 52.8013 48.548C52.8191 48.7761 52.8813 48.9985 52.9842 49.2024C53.0872 49.4062 53.2289 49.5877 53.4013 49.7363C53.5737 49.8848 53.7734 49.9977 53.989 50.0684C54.4244 50.2112 54.8981 50.1736 55.306 49.9638C55.7139 49.754 56.0226 49.3893 56.1641 48.9499C56.2342 48.7322 56.2611 48.5027 56.2433 48.2746C56.2255 48.0464 56.1633 47.8241 56.0604 47.6202C55.9574 47.4163 55.8157 47.2348 55.6433 47.0862C55.4708 46.9376 55.2711 46.8247 55.0555 46.7541C54.9071 46.7054 54.7529 46.6773 54.597 46.6704ZM36.9233 52.0361C32.7822 52.0563 27.2869 55.2951 23.0319 58.2179C26.6818 64.8334 33.0941 69.6731 40.7056 71.1587C42.6217 64.6938 44.2387 55.9369 40.2364 53.0019C39.3054 52.319 38.177 52.0299 36.9233 52.0361ZM54.3809 52.04C53.1188 52.04 51.9848 52.3335 51.0538 53.0162C47.046 55.9555 48.7784 64.6538 50.6533 71.1539C58.2656 69.6601 64.676 64.811 68.3188 58.1868C64.0979 55.2391 58.5491 52.04 54.3809 52.0398V52.04ZM45.6667 53.1634C45.2089 53.1634 44.7698 53.347 44.446 53.6737C44.1223 54.0005 43.9404 54.4438 43.9404 54.9059C43.9404 55.3681 44.1223 55.8113 44.446 56.1381C44.7698 56.4649 45.2089 56.6485 45.6667 56.6485C46.1245 56.6485 46.5636 56.4649 46.8873 56.1381C47.2111 55.8113 47.393 55.3681 47.393 54.9059C47.393 54.4438 47.2111 54.0005 46.8873 53.6737C46.5636 53.347 46.1245 53.1634 45.6667 53.1634Z" fill="#212121"/>
</svg>
