<svg width="98" height="91" viewBox="0 0 98 91" fill="none" xmlns="http://www.w3.org/2000/svg">
<path d="M87.4403 59.6211C87.4886 58.9028 87.6335 58.1844 87.6335 57.4661V59.8605L87.4403 59.6211ZM39.3405 57.4661C39.3405 60.8662 40.0649 64.1226 41.3688 67.0438H15.1941V71.8326C15.1941 74.4665 13.0209 76.6215 10.3648 76.6215H5.53547C2.87936 76.6215 0.706177 74.4665 0.706177 71.8326V33.5219L10.7511 4.78884C11.717 2.01131 14.4214 0 17.6087 0H70.731C73.9183 0 76.6227 2.01131 77.5886 4.78884L87.6335 33.5219V57.4661C87.6335 44.2489 76.8159 33.5219 63.487 33.5219C50.1582 33.5219 39.3405 44.2489 39.3405 57.4661ZM24.8527 45.494C24.8527 41.5193 21.617 38.3107 17.6087 38.3107C13.6004 38.3107 10.3648 41.5193 10.3648 45.494C10.3648 49.4688 13.6004 52.6773 17.6087 52.6773C21.617 52.6773 24.8527 49.4688 24.8527 45.494ZM77.9749 28.7331L70.731 7.18327H17.6087L10.3648 28.7331H77.9749ZM96.6643 82.3202L76.8159 62.6381C78.7959 57.6577 77.6852 51.8153 73.532 47.7448C69.1856 43.3869 62.666 42.5249 57.4021 44.9193L66.7709 54.2097L60.2514 60.7225L50.6411 51.3843C48.0333 56.6041 49.2406 63.0691 53.4904 67.4269C55.4083 69.3671 57.8564 70.709 60.5334 71.2876C63.2104 71.8661 65.9996 71.6561 68.5578 70.6833L88.4062 90.3176C89.2755 91.2275 90.5794 91.2275 91.4486 90.3176L96.4711 85.3851C97.5336 84.5231 97.5336 82.9907 96.6643 82.3202Z" fill="#212121"/>
</svg>
