<svg width="172" height="91" viewBox="0 0 172 91" fill="none" xmlns="http://www.w3.org/2000/svg">
<path d="M57.1666 0V11.375H68.5666V22.75H37.57L27.7774 8.17294L25.9876 5.6875H0.166626V38.038L28.6666 49.413V91H111.493L113.101 88.5089L162.617 17.0625H171.167V5.6875H152.106L150.681 6.75675L114.167 34.125V22.75H79.9666V11.375H91.3666V0H57.1666ZM11.5666 17.0625H19.7632L28.6666 30.394V36.9688L11.5666 30.212V17.0625ZM141.418 28.0849L105.617 79.625H40.0666V34.125H102.767V56.875L111.852 50.1183L141.418 28.0849ZM162.617 39.8125C162.617 39.8125 154.067 55.0095 154.067 59.7188C154.067 61.9814 154.967 64.1513 156.571 65.7513C158.174 67.3512 160.349 68.25 162.617 68.25C164.884 68.25 167.059 67.3512 168.662 65.7513C170.266 64.1513 171.167 61.9814 171.167 59.7188C171.167 55.0095 162.617 39.8125 162.617 39.8125Z" fill="#212121"/>
</svg>
