<svg width="122" height="91" viewBox="0 0 122 91" fill="none" xmlns="http://www.w3.org/2000/svg">
<path d="M122 45.5C122 62.2339 115.226 77.4006 104.306 88.4722L98.8455 83.0122C108.451 73.3055 114.417 60.1611 114.417 45.5C114.417 30.8894 108.451 17.6944 98.8455 7.98778L104.306 2.52778C115.226 13.5994 122 28.7661 122 45.5ZM101.778 33.3667V25.2778H85.6C81.1511 25.2778 77.5111 28.9178 77.5111 33.3667V41.4556C77.5111 43.6009 78.3633 45.6583 79.8803 47.1753C81.3972 48.6922 83.4547 49.5444 85.6 49.5444H93.6889V57.6333H77.5111V65.7222H93.6889C98.1377 65.7222 101.778 62.0822 101.778 57.6333V49.5444C101.778 47.3991 100.926 45.3417 99.4086 43.8247C97.8916 42.3078 95.8342 41.4556 93.6889 41.4556H85.6V33.3667H101.778ZM43.2344 15.1667C48.5427 11.9817 54.7105 10.1111 61.3333 10.1111C67.9561 10.1111 74.1239 11.9817 79.4322 15.1667H95.155C86.8639 5.86444 74.7811 0 61.3333 0C47.8855 0 35.8027 5.86444 27.5116 15.1667H43.2344ZM67.4 45.5C70.6355 45.5 73.4666 48.3311 73.4666 51.5667V57.6333C73.4666 58.6956 73.2574 59.7474 72.8509 60.7288C72.4444 61.7102 71.8486 62.6019 71.0975 63.353C70.3463 64.1042 69.4546 64.7 68.4732 65.1065C67.4918 65.513 66.44 65.7222 65.3777 65.7222H49.2V25.2778H65.3777C67.523 25.2778 69.5805 26.13 71.0975 27.647C72.6144 29.1639 73.4666 31.2214 73.4666 33.3667V39.4333C73.4666 42.6689 70.6355 45.5 67.4 45.5ZM65.3777 49.5444H57.2888V57.6333H65.3777V49.5444ZM65.3777 33.3667H57.2888V41.4556H65.3777V33.3667ZM23.8211 7.98778L18.3611 2.52778C7.44107 13.5994 0.666626 28.7661 0.666626 45.5C0.666626 62.2339 7.44107 77.4006 18.3611 88.4722L23.8211 83.0122C14.2155 73.3055 8.24996 60.1611 8.24996 45.5C8.24996 30.8894 14.2155 17.6944 23.8211 7.98778ZM37.0666 65.7222V49.5444H28.9777V65.7222H20.8888V33.3667C20.8888 31.2214 21.7411 29.1639 23.258 27.647C24.775 26.13 26.8324 25.2778 28.9777 25.2778H37.0666C41.5155 25.2778 45.1555 28.9178 45.1555 33.3667V65.7222H37.0666ZM37.0666 41.4556V33.3667H28.9777V41.4556H37.0666ZM79.4322 75.8333C74.1239 79.0183 67.9561 80.8889 61.3333 80.8889C54.9525 80.8833 48.6944 79.1352 43.2344 75.8333H27.5116C35.8027 85.1356 47.8855 91 61.3333 91C74.7811 91 86.8639 85.1356 95.155 75.8333H79.4322Z" fill="#212121"/>
</svg>
