<svg width="92" height="91" viewBox="0 0 92 91" fill="none" xmlns="http://www.w3.org/2000/svg">
<path d="M85.9126 50.7712L79.6882 32.1053C78.7853 29.3877 77.0485 27.0236 74.7247 25.349C72.4009 23.6744 69.6082 22.7744 66.7435 22.777H25.2566C22.3918 22.7744 19.5991 23.6744 17.2753 25.349C14.9515 27.0236 13.2147 29.3877 12.3118 32.1053L6.0874 50.7712C4.43257 51.464 3.01939 52.6301 2.02532 54.123C1.03124 55.6159 0.500595 57.3692 0.5 59.1626V72.8072C0.5 76.1638 2.3382 79.0655 5.05 80.6437V86.4518C5.05 87.6581 5.52937 88.8149 6.38266 89.6679C7.23595 90.5208 8.39327 91 9.6 91H14.15C15.3567 91 16.514 90.5208 17.3673 89.6679C18.2206 88.8149 18.7 87.6581 18.7 86.4518V81.9036H73.3V86.4518C73.3 87.6581 73.7794 88.8149 74.6327 89.6679C75.486 90.5208 76.6433 91 77.85 91H82.4C83.6067 91 84.7641 90.5208 85.6173 89.6679C86.4706 88.8149 86.95 87.6581 86.95 86.4518V80.6437C88.3304 79.8524 89.4778 78.7114 90.2766 77.3356C91.0754 75.9598 91.4974 74.3979 91.5 72.8072V59.1626C91.5 55.383 89.1932 52.1493 85.9126 50.7712ZM25.2566 31.8734H66.7389C67.6942 31.8732 68.6254 32.1735 69.4004 32.7319C70.1754 33.2903 70.755 34.0783 71.0569 34.9844L76.0892 50.0662H15.9109L20.9386 34.9844C21.562 33.1241 23.3001 31.8734 25.2566 31.8734ZM16.425 72.8072C15.5284 72.8069 14.6407 72.6301 13.8125 72.2868C12.9843 71.9436 12.2318 71.4406 11.5981 70.8067C10.3181 69.5264 9.5994 67.7903 9.6 65.9803C9.6006 64.1704 10.3205 62.4347 11.6013 61.1553C12.8821 59.8759 14.6188 59.1574 16.4296 59.158C18.2403 59.1586 19.9766 59.8782 21.2565 61.1585C22.5364 62.4388 23.2552 64.1749 23.2546 65.9849C23.2539 67.7949 22.5341 69.5305 21.2533 70.8099C19.9725 72.0894 18.2357 72.8078 16.425 72.8072ZM75.575 72.8072C73.7643 72.8066 72.028 72.087 70.7481 70.8067C69.4681 69.5264 68.7494 67.7903 68.75 65.9803C68.7506 64.1704 69.4705 62.4347 70.7513 61.1553C72.0321 59.8759 73.7688 59.1574 75.5796 59.158C77.3903 59.1586 79.1266 59.8782 80.4065 61.1585C81.6864 62.4388 82.4052 64.1749 82.4045 65.9849C82.4039 67.7949 81.6841 69.5305 80.4033 70.8099C79.1225 72.0894 77.3857 72.8078 75.575 72.8072ZM32.35 10.8516C32.3728 5.90316 27.6317 1.52324 26.0392 0.190617C25.8944 0.0675649 25.7105 0 25.5205 0C25.3304 0 25.1465 0.0675649 25.0018 0.190617C23.4002 1.51414 18.6772 5.81674 18.7 10.8471C18.7 14.9177 21.7622 18.2288 25.525 18.2288C29.2879 18.2288 32.35 14.9177 32.35 10.8516ZM52.825 10.8516C52.8478 5.90316 48.1067 1.51869 46.5142 0.190617C46.3694 0.0675649 46.1855 0 45.9954 0C45.8054 0 45.6215 0.0675649 45.4768 0.190617C43.8706 1.51414 39.1477 5.82129 39.1704 10.8516C39.175 14.9177 42.2372 18.2288 46 18.2288C49.7629 18.2288 52.825 14.9177 52.825 10.8516ZM73.3 10.8516C73.3228 5.90316 68.5817 1.51869 66.9892 0.190617C66.8444 0.0675649 66.6605 0 66.4705 0C66.2804 0 66.0965 0.0675649 65.9518 0.190617C64.3502 1.51414 59.6273 5.81674 59.65 10.8471C59.65 14.9177 62.7122 18.2288 66.475 18.2288C70.2379 18.2288 73.3 14.9177 73.3 10.8516Z" fill="#212121"/>
</svg>
